<svg width="100%" height="100%" viewBox="0 0 433 218" version="1.1" xmlns="http://www.w3.org/2000/svg" xmlns:xlink="http://www.w3.org/1999/xlink" xml:space="preserve" style="fill-rule:evenodd;clip-rule:evenodd;stroke-linejoin:round;stroke-miterlimit:1.41421;">
    <g transform="matrix(1,0,0,1,-530.595,-269.821)">
        <g transform="matrix(0.818836,-0.000875704,-0.000875704,0.818836,-403.197,-204.086)">
            <path d="M1364.55,587.842C1366.57,585.822 1369.31,584.689 1372.17,584.692C1375.03,584.695 1377.77,585.834 1379.8,587.859C1396.72,604.785 1437.24,645.301 1454.17,662.227C1456.19,664.251 1457.33,666.996 1457.33,669.856C1457.34,672.716 1456.2,675.458 1454.18,677.478C1437.77,693.888 1400.55,731.109 1400.55,731.109L1381.63,712.184L1423.95,669.86L1372.16,618.075L1329.84,660.398L1310.92,641.473C1310.92,641.473 1348.14,604.253 1364.55,587.842ZM1362.54,769.125L1320.38,811.282C1320.38,811.282 1314.33,817.331 1309.07,822.589C1307.05,824.61 1304.31,825.743 1301.45,825.74C1298.59,825.737 1295.84,824.598 1293.82,822.573C1266.79,795.539 1175.78,704.528 1148.74,677.494C1146.72,675.47 1145.58,672.725 1145.57,669.865C1145.57,667.005 1146.7,664.263 1148.73,662.243C1165.65,645.321 1206.2,604.764 1223.12,587.842C1225.15,585.822 1227.89,584.689 1230.75,584.692C1233.61,584.695 1236.35,585.834 1238.38,587.859C1270.25,619.736 1391.09,740.571 1391.09,740.571L1372,759.663L1230.74,618.075L1178.96,669.86L1230.74,721.646L1272.9,679.49L1291.82,698.415L1249.67,740.571L1301.45,792.357L1343.61,750.201L1362.54,769.125Z" style="fill:rgb(224,255,53);"/>
        </g>
        <g transform="matrix(0.212004,0,0,0.212004,511.195,374.447)">
            <path d="M955.049,502.928C959.669,502.928 963.484,502.165 966.496,500.639C969.507,499.113 971.013,496.534 971.013,492.904C971.013,491.172 970.744,489.687 970.208,488.449C969.672,487.212 968.785,486.098 967.548,485.108C966.31,484.118 964.681,483.169 962.659,482.262C960.638,481.354 958.143,480.282 955.173,479.044C952.78,478.054 950.511,477.044 948.366,476.013C946.221,474.981 944.324,473.785 942.674,472.424C941.024,471.063 939.704,469.433 938.714,467.536C937.724,465.638 937.229,463.328 937.229,460.606C937.229,455.408 939.188,451.201 943.107,447.983C947.026,444.766 952.409,443.157 959.256,443.157C963.629,443.157 967.238,443.528 970.084,444.271C972.931,445.013 974.931,445.673 976.086,446.251L974.23,453.428C973.24,452.933 971.569,452.273 969.218,451.448C966.867,450.623 963.423,450.211 958.885,450.211C957.07,450.211 955.358,450.396 953.749,450.768C952.141,451.139 950.718,451.716 949.48,452.5C948.243,453.284 947.253,454.274 946.51,455.47C945.768,456.666 945.396,458.131 945.396,459.863C945.396,461.596 945.726,463.081 946.386,464.318C947.046,465.556 948.016,466.649 949.294,467.598C950.573,468.546 952.141,469.433 953.997,470.258C955.853,471.083 957.978,471.991 960.37,472.981C962.845,473.971 965.217,474.981 967.486,476.013C969.754,477.044 971.755,478.281 973.488,479.725C975.22,481.169 976.623,482.901 977.695,484.923C978.768,486.944 979.304,489.481 979.304,492.533C979.304,498.308 977.138,502.681 972.807,505.651C968.476,508.621 962.556,510.106 955.049,510.106C949.439,510.106 945.149,509.631 942.179,508.683C939.209,507.734 937.229,507.012 936.239,506.517L938.343,499.216C938.59,499.381 939.126,499.649 939.951,500.02C940.776,500.391 941.89,500.804 943.293,501.258C944.695,501.711 946.366,502.103 948.304,502.433C950.243,502.763 952.491,502.928 955.049,502.928Z" style="fill:white;fill-rule:nonzero;"/>
            <path d="M1002.45,444.642L1027.94,444.642L1027.94,451.448L1002.45,451.448L1002.45,485.479C1002.45,489.109 1002.75,492.059 1003.37,494.328C1003.99,496.596 1004.88,498.349 1006.03,499.587C1007.19,500.824 1008.59,501.649 1010.24,502.062C1011.89,502.474 1013.71,502.681 1015.69,502.681C1019.07,502.681 1021.79,502.289 1023.85,501.505C1025.92,500.721 1027.53,499.999 1028.68,499.339L1030.66,506.022C1029.51,506.764 1027.48,507.61 1024.6,508.559C1021.71,509.508 1018.57,509.982 1015.19,509.982C1011.23,509.982 1007.91,509.466 1005.23,508.435C1002.55,507.404 1000.4,505.836 998.794,503.733C997.186,501.629 996.051,499.009 995.391,495.874C994.731,492.739 994.401,489.027 994.401,484.737L994.401,425.832L1002.45,424.347L1002.45,444.642Z" style="fill:white;fill-rule:nonzero;"/>
            <path d="M1062.96,502.804C1066.09,502.804 1068.84,502.701 1071.19,502.495C1073.54,502.289 1075.54,502.021 1077.19,501.691L1077.19,479.168C1076.28,478.756 1074.84,478.323 1072.86,477.869C1070.88,477.415 1068.16,477.188 1064.69,477.188C1062.71,477.188 1060.65,477.333 1058.5,477.621C1056.36,477.91 1054.38,478.529 1052.56,479.478C1050.75,480.426 1049.26,481.726 1048.11,483.376C1046.95,485.026 1046.38,487.212 1046.38,489.934C1046.38,492.327 1046.77,494.348 1047.55,495.998C1048.34,497.648 1049.45,498.968 1050.89,499.958C1052.34,500.948 1054.07,501.67 1056.09,502.124C1058.11,502.578 1060.4,502.804 1062.96,502.804ZM1062.22,443.157C1066.42,443.157 1069.99,443.755 1072.92,444.951C1075.85,446.148 1078.22,447.798 1080.04,449.901C1081.85,452.005 1083.17,454.501 1084,457.388C1084.82,460.276 1085.23,463.411 1085.23,466.793L1085.23,507.136C1084.41,507.383 1083.21,507.651 1081.64,507.94C1080.08,508.229 1078.26,508.538 1076.2,508.868C1074.14,509.198 1071.85,509.466 1069.33,509.673C1066.82,509.879 1064.24,509.982 1061.6,509.982C1058.21,509.982 1055.1,509.611 1052.25,508.868C1049.41,508.126 1046.93,506.95 1044.83,505.341C1042.73,503.733 1041.08,501.67 1039.88,499.154C1038.68,496.638 1038.09,493.564 1038.09,489.934C1038.09,486.469 1038.75,483.499 1040.07,481.024C1041.38,478.549 1043.24,476.508 1045.63,474.899C1048.03,473.29 1050.87,472.114 1054.17,471.372C1057.47,470.629 1061.06,470.258 1064.94,470.258C1066.09,470.258 1067.31,470.32 1068.59,470.444C1069.87,470.568 1071.11,470.733 1072.3,470.939C1073.5,471.145 1074.53,471.351 1075.4,471.558C1076.26,471.764 1076.86,471.949 1077.19,472.114L1077.19,468.154C1077.19,465.927 1077.03,463.761 1076.69,461.658C1076.37,459.554 1075.64,457.656 1074.53,455.965C1073.42,454.274 1071.85,452.913 1069.83,451.881C1067.81,450.85 1065.14,450.334 1061.85,450.334C1057.14,450.334 1053.64,450.664 1051.33,451.324C1049.02,451.984 1047.33,452.521 1046.25,452.933L1045.14,445.879C1046.54,445.219 1048.71,444.601 1051.64,444.023C1054.56,443.446 1058.09,443.157 1062.22,443.157Z" style="fill:white;fill-rule:nonzero;"/>
            <path d="M1123.23,509.982C1120.5,504.949 1117.88,499.711 1115.37,494.266C1112.85,488.821 1110.5,483.314 1108.31,477.745C1106.13,472.176 1104.13,466.608 1102.31,461.039C1100.5,455.47 1098.93,450.004 1097.61,444.642L1106.15,444.642C1107.06,448.602 1108.21,452.871 1109.61,457.45C1111.02,462.029 1112.6,466.752 1114.38,471.619C1116.15,476.487 1118.11,481.478 1120.26,486.593C1122.4,491.708 1124.71,496.741 1127.18,501.691C1129,496.576 1130.61,491.749 1132.01,487.212C1133.41,482.674 1134.71,478.158 1135.91,473.661C1137.11,469.165 1138.26,464.566 1139.37,459.863C1140.49,455.161 1141.66,450.087 1142.9,444.642L1150.94,444.642C1148.31,456.604 1145.29,468.237 1141.91,479.539C1138.53,490.842 1134.86,501.196 1130.9,510.601C1129.33,514.313 1127.72,517.51 1126.07,520.191C1124.42,522.873 1122.59,525.079 1120.56,526.812C1118.54,528.544 1116.19,529.823 1113.51,530.648C1110.83,531.473 1107.67,531.886 1104.04,531.886C1101.98,531.886 1100.1,531.638 1098.41,531.143C1096.72,530.648 1095.67,530.277 1095.26,530.029L1096.87,523.347C1097.2,523.594 1098.12,523.945 1099.65,524.399C1101.18,524.853 1102.77,525.079 1104.41,525.079C1106.73,525.079 1108.81,524.832 1110.66,524.337C1112.52,523.842 1114.19,522.996 1115.68,521.8C1117.16,520.604 1118.5,519.057 1119.7,517.159C1120.89,515.262 1122.07,512.869 1123.23,509.982Z" style="fill:white;fill-rule:nonzero;"/>
            <path d="M1205.77,502.928C1210.39,502.928 1214.2,502.165 1217.21,500.639C1220.22,499.113 1221.73,496.534 1221.73,492.904C1221.73,491.172 1221.46,489.687 1220.93,488.449C1220.39,487.212 1219.5,486.098 1218.27,485.108C1217.03,484.118 1215.4,483.169 1213.38,482.262C1211.36,481.354 1208.86,480.282 1205.89,479.044C1203.5,478.054 1201.23,477.044 1199.08,476.013C1196.94,474.981 1195.04,473.785 1193.39,472.424C1191.74,471.063 1190.42,469.433 1189.43,467.536C1188.44,465.638 1187.95,463.328 1187.95,460.606C1187.95,455.408 1189.91,451.201 1193.82,447.983C1197.74,444.766 1203.13,443.157 1209.97,443.157C1214.35,443.157 1217.96,443.528 1220.8,444.271C1223.65,445.013 1225.65,445.673 1226.8,446.251L1224.95,453.428C1223.96,452.933 1222.29,452.273 1219.94,451.448C1217.58,450.623 1214.14,450.211 1209.6,450.211C1207.79,450.211 1206.08,450.396 1204.47,450.768C1202.86,451.139 1201.43,451.716 1200.2,452.5C1198.96,453.284 1197.97,454.274 1197.23,455.47C1196.49,456.666 1196.11,458.131 1196.11,459.863C1196.11,461.596 1196.44,463.081 1197.1,464.318C1197.76,465.556 1198.73,466.649 1200.01,467.598C1201.29,468.546 1202.86,469.433 1204.71,470.258C1206.57,471.083 1208.69,471.991 1211.09,472.981C1213.56,473.971 1215.93,474.981 1218.2,476.013C1220.47,477.044 1222.47,478.281 1224.2,479.725C1225.94,481.169 1227.34,482.901 1228.41,484.923C1229.49,486.944 1230.02,489.481 1230.02,492.533C1230.02,498.308 1227.86,502.681 1223.52,505.651C1219.19,508.621 1213.27,510.106 1205.77,510.106C1200.16,510.106 1195.87,509.631 1192.9,508.683C1189.93,507.734 1187.95,507.012 1186.96,506.517L1189.06,499.216C1189.31,499.381 1189.84,499.649 1190.67,500.02C1191.49,500.391 1192.61,500.804 1194.01,501.258C1195.41,501.711 1197.08,502.103 1199.02,502.433C1200.96,502.763 1203.21,502.928 1205.77,502.928Z" style="fill:white;fill-rule:nonzero;"/>
            <path d="M1245.61,446.869C1248.01,446.209 1251.12,445.467 1254.96,444.642C1258.79,443.817 1263.76,443.404 1269.87,443.404C1277.95,443.404 1283.81,445.756 1287.44,450.458C1287.85,450.128 1288.66,449.571 1289.85,448.788C1291.05,448.004 1292.56,447.199 1294.37,446.374C1296.19,445.549 1298.31,444.848 1300.74,444.271C1303.18,443.693 1305.88,443.404 1308.85,443.404C1313.72,443.404 1317.66,444.126 1320.67,445.57C1323.68,447.014 1326.01,449.035 1327.66,451.634C1329.31,454.233 1330.42,457.347 1331,460.977C1331.58,464.607 1331.87,468.567 1331.87,472.857L1331.87,508.621L1323.82,508.621L1323.82,475.456C1323.82,471.248 1323.64,467.598 1323.27,464.504C1322.9,461.41 1322.15,458.853 1321.04,456.831C1319.93,454.81 1318.34,453.284 1316.28,452.253C1314.21,451.221 1311.53,450.706 1308.23,450.706C1305.76,450.706 1303.51,450.933 1301.49,451.386C1299.47,451.84 1297.71,452.397 1296.23,453.057C1294.74,453.717 1293.53,454.377 1292.58,455.037C1291.63,455.697 1290.95,456.192 1290.54,456.522C1291.28,458.667 1291.83,461.08 1292.21,463.761C1292.58,466.443 1292.76,469.268 1292.76,472.238L1292.76,508.621L1284.72,508.621L1284.72,475.456C1284.72,471.248 1284.53,467.598 1284.16,464.504C1283.79,461.41 1283.03,458.853 1281.87,456.831C1280.72,454.81 1279.09,453.284 1276.98,452.253C1274.88,451.221 1272.1,450.706 1268.63,450.706C1264.75,450.706 1261.47,450.912 1258.79,451.324C1256.11,451.737 1254.4,452.108 1253.66,452.438L1253.66,508.621L1245.61,508.621L1245.61,446.869Z" style="fill:white;fill-rule:nonzero;"/>
            <path d="M1372.58,502.804C1375.72,502.804 1378.46,502.701 1380.81,502.495C1383.16,502.289 1385.16,502.021 1386.81,501.691L1386.81,479.168C1385.9,478.756 1384.46,478.323 1382.48,477.869C1380.5,477.415 1377.78,477.188 1374.31,477.188C1372.33,477.188 1370.27,477.333 1368.13,477.621C1365.98,477.91 1364,478.529 1362.19,479.478C1360.37,480.426 1358.89,481.726 1357.73,483.376C1356.58,485.026 1356,487.212 1356,489.934C1356,492.327 1356.39,494.348 1357.17,495.998C1357.96,497.648 1359.07,498.968 1360.52,499.958C1361.96,500.948 1363.69,501.67 1365.71,502.124C1367.73,502.578 1370.02,502.804 1372.58,502.804ZM1371.84,443.157C1376.05,443.157 1379.61,443.755 1382.54,444.951C1385.47,446.148 1387.84,447.798 1389.66,449.901C1391.47,452.005 1392.79,454.501 1393.62,457.388C1394.44,460.276 1394.86,463.411 1394.86,466.793L1394.86,507.136C1394.03,507.383 1392.84,507.651 1391.27,507.94C1389.7,508.229 1387.88,508.538 1385.82,508.868C1383.76,509.198 1381.47,509.466 1378.95,509.673C1376.44,509.879 1373.86,509.982 1371.22,509.982C1367.84,509.982 1364.72,509.611 1361.88,508.868C1359.03,508.126 1356.56,506.95 1354.45,505.341C1352.35,503.733 1350.7,501.67 1349.5,499.154C1348.31,496.638 1347.71,493.564 1347.71,489.934C1347.71,486.469 1348.37,483.499 1349.69,481.024C1351.01,478.549 1352.86,476.508 1355.26,474.899C1357.65,473.29 1360.5,472.114 1363.8,471.372C1367.1,470.629 1370.68,470.258 1374.56,470.258C1375.72,470.258 1376.93,470.32 1378.21,470.444C1379.49,470.568 1380.73,470.733 1381.92,470.939C1383.12,471.145 1384.15,471.351 1385.02,471.558C1385.88,471.764 1386.48,471.949 1386.81,472.114L1386.81,468.154C1386.81,465.927 1386.65,463.761 1386.32,461.658C1385.99,459.554 1385.27,457.656 1384.15,455.965C1383.04,454.274 1381.47,452.913 1379.45,451.881C1377.43,450.85 1374.77,450.334 1371.47,450.334C1366.77,450.334 1363.26,450.664 1360.95,451.324C1358.64,451.984 1356.95,452.521 1355.88,452.933L1354.76,445.879C1356.16,445.219 1358.33,444.601 1361.26,444.023C1364.19,443.446 1367.71,443.157 1371.84,443.157Z" style="fill:white;fill-rule:nonzero;"/>
            <path d="M1437.18,443.404C1439.82,443.404 1442.31,443.611 1444.67,444.023C1447.02,444.436 1448.65,444.848 1449.55,445.261L1447.94,452.191C1447.29,451.861 1445.94,451.51 1443.92,451.139C1441.9,450.768 1439.24,450.582 1435.94,450.582C1432.48,450.582 1429.69,450.829 1427.59,451.324C1425.48,451.819 1424.1,452.232 1423.44,452.562L1423.44,508.621L1415.4,508.621L1415.4,447.612C1417.46,446.704 1420.31,445.776 1423.94,444.828C1427.57,443.879 1431.98,443.404 1437.18,443.404Z" style="fill:white;fill-rule:nonzero;"/>
            <path d="M1469.23,444.642L1494.72,444.642L1494.72,451.448L1469.23,451.448L1469.23,485.479C1469.23,489.109 1469.54,492.059 1470.16,494.328C1470.78,496.596 1471.66,498.349 1472.82,499.587C1473.97,500.824 1475.38,501.649 1477.03,502.062C1478.68,502.474 1480.49,502.681 1482.47,502.681C1485.85,502.681 1488.58,502.289 1490.64,501.505C1492.7,500.721 1494.31,499.999 1495.46,499.339L1497.44,506.022C1496.29,506.764 1494.27,507.61 1491.38,508.559C1488.49,509.508 1485.36,509.982 1481.98,509.982C1478.02,509.982 1474.7,509.466 1472.01,508.435C1469.33,507.404 1467.19,505.836 1465.58,503.733C1463.97,501.629 1462.84,499.009 1462.18,495.874C1461.52,492.739 1461.19,489.027 1461.19,484.737L1461.19,425.832L1469.23,424.347L1469.23,444.642Z" style="fill:white;fill-rule:nonzero;"/>
            <path d="M1505.74,476.569C1505.74,470.959 1506.54,466.071 1508.15,461.905C1509.76,457.739 1511.86,454.253 1514.46,451.448C1517.06,448.643 1520.03,446.56 1523.37,445.199C1526.71,443.838 1530.16,443.157 1533.7,443.157C1541.54,443.157 1547.79,445.714 1552.45,450.829C1557.11,455.944 1559.44,463.823 1559.44,474.466C1559.44,475.126 1559.42,475.786 1559.38,476.446C1559.34,477.106 1559.28,477.724 1559.2,478.302L1514.28,478.302C1514.52,486.139 1516.46,492.162 1520.09,496.369C1523.72,500.577 1529.5,502.681 1537.42,502.681C1541.79,502.681 1545.25,502.268 1547.81,501.443C1550.37,500.618 1552.23,499.917 1553.38,499.339L1554.87,506.269C1553.71,506.929 1551.54,507.713 1548.37,508.621C1545.19,509.528 1541.46,509.982 1537.17,509.982C1531.56,509.982 1526.77,509.157 1522.81,507.507C1518.85,505.857 1515.6,503.547 1513.04,500.577C1510.48,497.607 1508.62,494.08 1507.47,489.996C1506.31,485.913 1505.74,481.437 1505.74,476.569ZM1551.15,471.496C1550.99,464.813 1549.42,459.616 1546.45,455.903C1543.48,452.191 1539.27,450.334 1533.83,450.334C1530.94,450.334 1528.36,450.912 1526.09,452.067C1523.82,453.222 1521.84,454.769 1520.15,456.708C1518.46,458.646 1517.14,460.894 1516.19,463.452C1515.24,466.009 1514.69,468.691 1514.52,471.496L1551.15,471.496Z" style="fill:white;fill-rule:nonzero;"/>
            <path d="M1599.17,443.404C1601.81,443.404 1604.3,443.611 1606.65,444.023C1609.01,444.436 1610.63,444.848 1611.54,445.261L1609.93,452.191C1609.27,451.861 1607.93,451.51 1605.91,451.139C1603.89,450.768 1601.23,450.582 1597.93,450.582C1594.47,450.582 1591.68,450.829 1589.58,451.324C1587.47,451.819 1586.09,452.232 1585.43,452.562L1585.43,508.621L1577.39,508.621L1577.39,447.612C1579.45,446.704 1582.3,445.776 1585.93,444.828C1589.56,443.879 1593.97,443.404 1599.17,443.404Z" style="fill:white;fill-rule:nonzero;"/>
            <path d="M1659.43,444.642L1684.93,444.642L1684.93,451.448L1659.43,451.448L1659.43,485.479C1659.43,489.109 1659.74,492.059 1660.36,494.328C1660.98,496.596 1661.87,498.349 1663.02,499.587C1664.18,500.824 1665.58,501.649 1667.23,502.062C1668.88,502.474 1670.69,502.681 1672.67,502.681C1676.06,502.681 1678.78,502.289 1680.84,501.505C1682.9,500.721 1684.51,499.999 1685.67,499.339L1687.65,506.022C1686.49,506.764 1684.47,507.61 1681.59,508.559C1678.7,509.508 1675.56,509.982 1672.18,509.982C1668.22,509.982 1664.9,509.466 1662.22,508.435C1659.54,507.404 1657.39,505.836 1655.78,503.733C1654.17,501.629 1653.04,499.009 1652.38,495.874C1651.72,492.739 1651.39,489.027 1651.39,484.737L1651.39,425.832L1659.43,424.347L1659.43,444.642Z" style="fill:white;fill-rule:nonzero;"/>
            <path d="M1754.35,476.693C1754.35,481.726 1753.63,486.304 1752.18,490.429C1750.74,494.554 1748.72,498.061 1746.12,500.948C1743.52,503.836 1740.45,506.084 1736.9,507.693C1733.35,509.301 1729.43,510.106 1725.14,510.106C1720.86,510.106 1716.94,509.301 1713.39,507.693C1709.84,506.084 1706.77,503.836 1704.17,500.948C1701.57,498.061 1699.55,494.554 1698.11,490.429C1696.66,486.304 1695.94,481.726 1695.94,476.693C1695.94,471.661 1696.66,467.082 1698.11,462.957C1699.55,458.832 1701.57,455.305 1704.17,452.376C1706.77,449.448 1709.84,447.179 1713.39,445.57C1716.94,443.961 1720.86,443.157 1725.14,443.157C1729.43,443.157 1733.35,443.961 1736.9,445.57C1740.45,447.179 1743.52,449.448 1746.12,452.376C1748.72,455.305 1750.74,458.832 1752.18,462.957C1753.63,467.082 1754.35,471.661 1754.35,476.693ZM1745.81,476.693C1745.81,468.691 1743.95,462.318 1740.24,457.574C1736.53,452.83 1731.5,450.458 1725.14,450.458C1718.79,450.458 1713.76,452.83 1710.05,457.574C1706.34,462.318 1704.48,468.691 1704.48,476.693C1704.48,484.696 1706.34,491.048 1710.05,495.751C1713.76,500.453 1718.79,502.804 1725.14,502.804C1731.5,502.804 1736.53,500.453 1740.24,495.751C1743.95,491.048 1745.81,484.696 1745.81,476.693Z" style="fill:white;fill-rule:nonzero;"/>
            <path d="M1813.5,501.196C1813.01,501.608 1812.27,502.083 1811.28,502.619C1810.29,503.155 1809.07,503.712 1807.62,504.289C1806.18,504.867 1804.53,505.341 1802.67,505.713C1800.82,506.084 1798.74,506.269 1796.42,506.269C1792.71,506.269 1789.12,505.692 1785.66,504.537C1782.19,503.382 1779.16,501.567 1776.56,499.092C1773.96,496.617 1771.88,493.42 1770.31,489.501C1768.75,485.583 1767.96,480.818 1767.96,475.208C1767.96,470.671 1768.66,466.463 1770.07,462.586C1771.47,458.708 1773.47,455.346 1776.07,452.5C1778.67,449.654 1781.84,447.426 1785.6,445.818C1789.35,444.209 1793.58,443.404 1798.28,443.404C1804.22,443.404 1808.99,443.796 1812.57,444.58C1816.16,445.364 1819.11,446.127 1821.42,446.869L1821.42,505.279C1821.42,514.849 1818.95,521.676 1814,525.76C1809.05,529.844 1801.58,531.886 1791.6,531.886C1787.47,531.886 1783.74,531.576 1780.4,530.958C1777.06,530.339 1774.19,529.617 1771.8,528.792L1773.41,521.491C1775.39,522.398 1778.09,523.182 1781.51,523.842C1784.94,524.502 1788.38,524.832 1791.85,524.832C1799.44,524.832 1804.94,523.368 1808.37,520.439C1811.79,517.51 1813.5,512.498 1813.5,505.403L1813.5,501.196ZM1813.38,452.438C1811.98,452.026 1810.16,451.634 1807.93,451.263C1805.71,450.891 1802.53,450.706 1798.4,450.706C1794.94,450.706 1791.87,451.304 1789.19,452.5C1786.5,453.696 1784.22,455.388 1782.32,457.574C1780.42,459.76 1778.98,462.359 1777.99,465.37C1777,468.381 1776.5,471.702 1776.5,475.332C1776.5,479.539 1777.08,483.149 1778.23,486.16C1779.39,489.171 1780.89,491.626 1782.75,493.523C1784.61,495.421 1786.73,496.803 1789.12,497.669C1791.52,498.535 1793.95,498.968 1796.42,498.968C1800.06,498.968 1803.38,498.432 1806.39,497.359C1809.4,496.287 1811.73,495.049 1813.38,493.647L1813.38,452.438Z" style="fill:white;fill-rule:nonzero;"/>
            <path d="M1838.87,476.569C1838.87,470.959 1839.68,466.071 1841.28,461.905C1842.89,457.739 1845,454.253 1847.6,451.448C1850.19,448.643 1853.16,446.56 1856.51,445.199C1859.85,443.838 1863.29,443.157 1866.84,443.157C1874.68,443.157 1880.93,445.714 1885.59,450.829C1890.25,455.944 1892.58,463.823 1892.58,474.466C1892.58,475.126 1892.56,475.786 1892.52,476.446C1892.48,477.106 1892.41,477.724 1892.33,478.302L1847.41,478.302C1847.66,486.139 1849.6,492.162 1853.23,496.369C1856.86,500.577 1862.63,502.681 1870.55,502.681C1874.92,502.681 1878.39,502.268 1880.95,501.443C1883.5,500.618 1885.36,499.917 1886.52,499.339L1888,506.269C1886.85,506.929 1884.68,507.713 1881.5,508.621C1878.33,509.528 1874.59,509.982 1870.3,509.982C1864.69,509.982 1859.91,509.157 1855.95,507.507C1851.99,505.857 1848.73,503.547 1846.17,500.577C1843.62,497.607 1841.76,494.08 1840.6,489.996C1839.45,485.913 1838.87,481.437 1838.87,476.569ZM1884.29,471.496C1884.12,464.813 1882.56,459.616 1879.59,455.903C1876.62,452.191 1872.41,450.334 1866.96,450.334C1864.08,450.334 1861.5,450.912 1859.23,452.067C1856.96,453.222 1854.98,454.769 1853.29,456.708C1851.6,458.646 1850.28,460.894 1849.33,463.452C1848.38,466.009 1847.82,468.691 1847.66,471.496L1884.29,471.496Z" style="fill:white;fill-rule:nonzero;"/>
            <path d="M1918.07,444.642L1943.56,444.642L1943.56,451.448L1918.07,451.448L1918.07,485.479C1918.07,489.109 1918.38,492.059 1919,494.328C1919.62,496.596 1920.51,498.349 1921.66,499.587C1922.82,500.824 1924.22,501.649 1925.87,502.062C1927.52,502.474 1929.33,502.681 1931.31,502.681C1934.69,502.681 1937.42,502.289 1939.48,501.505C1941.54,500.721 1943.15,499.999 1944.31,499.339L1946.29,506.022C1945.13,506.764 1943.11,507.61 1940.22,508.559C1937.34,509.508 1934.2,509.982 1930.82,509.982C1926.86,509.982 1923.54,509.466 1920.86,508.435C1918.17,507.404 1916.03,505.836 1914.42,503.733C1912.81,501.629 1911.68,499.009 1911.02,495.874C1910.36,492.739 1910.03,489.027 1910.03,484.737L1910.03,425.832L1918.07,424.347L1918.07,444.642Z" style="fill:white;fill-rule:nonzero;"/>
            <path d="M1958.41,508.621L1958.41,414.076L1966.46,412.591L1966.46,446.498C1969.1,445.508 1971.78,444.745 1974.5,444.209C1977.22,443.673 1979.95,443.404 1982.67,443.404C1987.62,443.404 1991.74,444.106 1995.04,445.508C1998.34,446.911 2000.98,448.911 2002.96,451.51C2004.94,454.109 2006.33,457.223 2007.11,460.853C2007.89,464.483 2008.29,468.484 2008.29,472.857L2008.29,508.621L2000.24,508.621L2000.24,475.456C2000.24,470.918 1999.93,467.082 1999.31,463.947C1998.69,460.812 1997.66,458.254 1996.22,456.274C1994.78,454.294 1992.86,452.871 1990.47,452.005C1988.07,451.139 1985.06,450.706 1981.43,450.706C1980.03,450.706 1978.52,450.829 1976.91,451.077C1975.31,451.324 1973.8,451.593 1972.4,451.881C1971,452.17 1969.74,452.479 1968.62,452.809C1967.51,453.139 1966.79,453.387 1966.46,453.552L1966.46,508.621L1958.41,508.621Z" style="fill:white;fill-rule:nonzero;"/>
            <path d="M2024.99,476.569C2024.99,470.959 2025.8,466.071 2027.4,461.905C2029.01,457.739 2031.12,454.253 2033.72,451.448C2036.31,448.643 2039.28,446.56 2042.63,445.199C2045.97,443.838 2049.41,443.157 2052.96,443.157C2060.8,443.157 2067.05,445.714 2071.71,450.829C2076.37,455.944 2078.7,463.823 2078.7,474.466C2078.7,475.126 2078.68,475.786 2078.64,476.446C2078.6,477.106 2078.53,477.724 2078.45,478.302L2033.53,478.302C2033.78,486.139 2035.72,492.162 2039.35,496.369C2042.98,500.577 2048.75,502.681 2056.67,502.681C2061.04,502.681 2064.51,502.268 2067.07,501.443C2069.62,500.618 2071.48,499.917 2072.64,499.339L2074.12,506.269C2072.97,506.929 2070.8,507.713 2067.62,508.621C2064.45,509.528 2060.71,509.982 2056.42,509.982C2050.81,509.982 2046.03,509.157 2042.07,507.507C2038.11,505.857 2034.85,503.547 2032.29,500.577C2029.74,497.607 2027.88,494.08 2026.72,489.996C2025.57,485.913 2024.99,481.437 2024.99,476.569ZM2070.41,471.496C2070.24,464.813 2068.68,459.616 2065.7,455.903C2062.74,452.191 2058.53,450.334 2053.08,450.334C2050.2,450.334 2047.62,450.912 2045.35,452.067C2043.08,453.222 2041.1,454.769 2039.41,456.708C2037.72,458.646 2036.4,460.894 2035.45,463.452C2034.5,466.009 2033.94,468.691 2033.78,471.496L2070.41,471.496Z" style="fill:white;fill-rule:nonzero;"/>
            <path d="M2118.42,443.404C2121.06,443.404 2123.56,443.611 2125.91,444.023C2128.26,444.436 2129.89,444.848 2130.8,445.261L2129.19,452.191C2128.53,451.861 2127.19,451.51 2125.17,451.139C2123.15,450.768 2120.49,450.582 2117.18,450.582C2113.72,450.582 2110.94,450.829 2108.83,451.324C2106.73,451.819 2105.35,452.232 2104.69,452.562L2104.69,508.621L2096.64,508.621L2096.64,447.612C2098.7,446.704 2101.55,445.776 2105.18,444.828C2108.81,443.879 2113.22,443.404 2118.42,443.404Z" style="fill:white;fill-rule:nonzero;"/>
        </g>
    </g>
</svg>